<svg width="77" height="77" viewBox="0 0 77 77" fill="none" xmlns="http://www.w3.org/2000/svg">
<g clip-path="url(#clip0_403_87)">
<path d="M64.1675 0H12.835C5.75341 0.0240625 0.0265344 5.75334 0.00247192 12.8325V64.1651C0.00247192 71.2202 5.77988 76.9976 12.835 76.9976H64.1675C71.2227 76.9976 77.0001 71.2202 77.0001 64.1651V12.8325C77.0001 5.77741 71.2227 0 64.1675 0ZM57.1485 54.0781C56.5084 55.6205 55.493 56.9848 54.1912 58.0388C52.8365 59.1288 51.1329 60.0311 49.0274 60.6712C46.934 61.3233 44.4411 61.6481 41.5464 61.6481H20.9176V16.7307H42.7375C46.7728 16.7307 50.0068 17.633 52.425 19.4882C54.8698 21.3434 56.0729 24.1251 56.0729 27.8596C56.0729 30.1287 55.5219 32.0585 54.4174 33.661C53.3129 35.2636 51.7224 36.5052 49.6675 37.3715V37.5231C52.413 38.1006 54.5305 39.4023 55.9213 41.4212C57.3121 43.44 58.0388 45.9955 58.0388 49.0779C58.0388 50.808 57.6995 52.449 57.0739 53.977L57.1485 54.0636V54.0781ZM48.2382 43.0117C46.934 41.8086 45.0788 41.2191 42.699 41.2191H28.8245V55.2307H42.7351C45.1028 55.2307 46.9701 54.6171 48.2863 53.3754C49.6025 52.1338 50.2666 50.3676 50.2666 48.1106C50.2426 45.892 49.6025 44.1763 48.2863 43.0093H48.2237L48.2382 43.0117ZM46.3204 33.9498C47.5861 32.8718 48.2117 31.3294 48.2117 29.3129C48.2117 27.0559 47.6486 25.4533 46.5081 24.5389C45.3795 23.6246 43.7505 23.1481 41.6089 23.1481H28.7764V35.5427H41.6089C43.4762 35.5427 45.0812 34.9917 46.3084 33.9522L46.3204 33.9498Z" fill="#C7C7C7"/>
</g>
<defs>
<clipPath id="clip0_403_87">
<rect width="77" height="77" fill="white"/>
</clipPath>
</defs>
</svg>
