<svg width="71" height="77" viewBox="0 0 71 77" fill="none" xmlns="http://www.w3.org/2000/svg">
<g clip-path="url(#clip0_403_59)">
<path d="M71.3061 0.0744629L64.9957 69.3531L37.6557 76.8145L10.3151 69.3531L4.0061 0.0744629H71.3061ZM58.5904 14.1612H37.6311H16.3004L17.3205 22.5272H37.6311H38.7719L37.6311 23.0085L18.0629 31.2692L18.7118 39.4467L37.6311 39.5089L47.7712 39.5415L47.1221 50.4452L37.6309 53.1537V53.1451L37.5531 53.167L28.387 50.8217L27.8308 44.0533H27.8004H19.2984H19.2685L20.3813 57.1197L37.6312 62.2901V62.2808L37.6623 62.2901L54.8197 57.2138L57.0453 31.2692H37.6312H37.5834L37.6312 31.2481L57.7565 22.5272L58.5904 14.1612Z" fill="#C7C7C7"/>
</g>
<defs>
<clipPath id="clip0_403_59">
<rect width="71" height="77" fill="white"/>
</clipPath>
</defs>
</svg>
