<svg width="33" height="49" viewBox="0 0 33 49" fill="none" xmlns="http://www.w3.org/2000/svg">
<path d="M9.25 32H16.5M9.25 32C5.24595 32 2 35.3577 2 39.5C2 43.6423 5.24595 47 9.25 47C13.2542 47 16.5 43.6423 16.5 39.5V32M9.25 32C5.24595 32 2 28.6423 2 24.5C2 20.3577 5.24595 17 9.25 17M16.5 32V24.5M9.25 17H16.5M9.25 17C5.24595 17 2 13.6421 2 9.5C2 5.35788 5.24595 2 9.25 2H16.5M16.5 24.5V17M16.5 24.5C16.5 28.6423 19.7458 32 23.75 32C27.7542 32 31 28.6423 31 24.5C31 20.3577 27.7542 17 23.75 17M16.5 24.5C16.5 20.3577 19.7458 17 23.75 17M16.5 17V2M16.5 17H23.75M16.5 2H23.75C27.7542 2 31 5.35788 31 9.5C31 13.6421 27.7542 17 23.75 17" stroke="#C7C7C7" stroke-width="4" stroke-linecap="round" stroke-linejoin="round"/>
</svg>
