<svg width="81" height="81" viewBox="0 0 81 81" fill="none" xmlns="http://www.w3.org/2000/svg">
<path fill-rule="evenodd" clip-rule="evenodd" d="M45.2729 12.9209C42.637 10.2848 38.3629 10.2848 35.7271 12.9209L33.4605 15.1874L38.7517 20.4786C39.3093 20.3294 39.8952 20.2499 40.5 20.2499C44.228 20.2499 47.25 23.272 47.25 26.9999C47.25 27.6046 47.1703 28.1907 47.0215 28.7483L53.9392 35.6659C54.4968 35.5171 55.0827 35.4374 55.6875 35.4374C59.4155 35.4374 62.4375 38.4594 62.4375 42.1874C62.4375 45.9155 59.4155 48.9374 55.6875 48.9374C51.9595 48.9374 48.9375 45.9155 48.9375 42.1874C48.9375 41.5826 49.0171 40.9967 49.166 40.4392L43.875 35.1479V51.5281C45.8926 52.6952 47.25 54.8764 47.25 57.3749C47.25 61.103 44.228 64.1249 40.5 64.1249C36.772 64.1249 33.75 61.103 33.75 57.3749C33.75 54.8764 35.1074 52.6952 37.125 51.5281V32.8469C35.1074 31.6798 33.75 29.4984 33.75 26.9999C33.75 26.3953 33.8296 25.8092 33.9785 25.2515L28.6875 19.9604L12.9209 35.727C10.2849 38.3629 10.2849 42.637 12.9209 45.2729L35.7271 68.0791C38.3629 70.715 42.637 70.715 45.2729 68.0791L68.0791 45.2729C70.715 42.637 70.715 38.3629 68.0791 35.727L45.2729 12.9209ZM30.954 8.14789C36.2262 2.87582 44.7738 2.87583 50.0458 8.14792L72.8521 30.954C78.1242 36.2262 78.1242 44.7737 72.8521 50.0458L50.0458 72.852C44.7738 78.1241 36.2262 78.1241 30.954 72.852L8.14795 50.0458C2.87588 44.7737 2.8759 36.2262 8.14799 30.954L30.954 8.14789Z" fill="#C7C7C7"/>
</svg>
