<svg width="72" height="77" viewBox="0 0 72 77" fill="none" xmlns="http://www.w3.org/2000/svg">
<g clip-path="url(#clip0_403_77)">
<path fill-rule="evenodd" clip-rule="evenodd" d="M55.1973 70.4697C48.9153 70.4697 44.8545 67.1482 42.8745 62.8043L48.3825 59.266C49.8333 61.8931 51.7161 63.8219 55.0533 63.8219C57.8541 63.8219 59.6433 62.2678 59.6433 60.1238C59.6433 56.8978 55.7625 55.6373 53.0229 54.3357C48.1413 52.032 44.9013 49.1374 44.9013 43.0248C44.9013 37.3993 48.7678 33.1116 54.8122 33.1116C59.1106 33.1116 62.2065 34.7722 64.4277 39.1122L59.1609 42.8649C58.0017 40.5612 56.7454 39.6502 54.8122 39.6502C52.8286 39.6502 51.5722 41.0443 51.5722 42.8649C51.5722 45.1167 52.8286 46.0275 55.7302 47.4209C61.8106 50.3115 66.4113 52.5824 66.4113 60.0165C66.4113 66.7719 61.6269 70.4697 55.1973 70.4697ZM39.6165 59.1588C39.6165 66.9323 35.3001 71.0409 29.3061 71.0409C23.8917 71.0409 20.6481 68.7444 19.0533 64.7518H18.9994H18.9741H18.9597L24.4641 60.4844C25.5261 62.5725 26.4837 64.0539 28.8021 64.0539C31.0269 64.0539 32.4165 62.8044 32.4165 59.0554V32.8114H39.6165V59.1588ZM0.0165405 76.7295H72.0165V-3.12158H0.0165405V76.7295Z" fill="#C7C7C7"/>
</g>
<defs>
<clipPath id="clip0_403_77">
<rect width="72" height="77" fill="white"/>
</clipPath>
</defs>
</svg>
