<svg width="81" height="81" viewBox="0 0 81 81" fill="none" xmlns="http://www.w3.org/2000/svg">
<g clip-path="url(#clip0_403_83)">
<path d="M69.6929 45.0461C69.7916 45.0436 69.9081 45.0411 70.027 45.0411C72.1381 45.0411 74.1352 45.5321 75.9071 46.4079L75.8287 46.3725C77.4436 47.1597 78.77 48.3241 79.7293 49.7517L79.7521 49.7872C80.5089 50.8908 80.9595 52.2551 80.9595 53.7233C80.9595 53.8296 80.957 53.9359 80.9519 54.0397V54.0245C80.8734 55.4901 80.2077 56.7835 79.1851 57.6897L79.18 57.6948C78.6206 58.2441 77.9448 58.6744 77.193 58.9478L77.155 58.9604C76.7332 59.0448 76.5011 58.9815 76.4589 58.7706C76.4167 58.5596 76.6066 58.3276 77.0285 58.0745C78.1726 57.3809 79.0003 56.2621 79.3015 54.9433L79.3091 54.9104C79.3167 54.8041 79.3218 54.6801 79.3218 54.5535C79.3218 53.7663 79.1345 53.0221 78.8029 52.364L78.8155 52.3918C78.2662 51.2452 77.4461 50.3035 76.4362 49.6226L76.4108 49.6074C74.8997 48.6354 73.0873 47.9976 71.1382 47.8381L71.0977 47.8356C70.4346 47.7368 69.6701 47.6812 68.8905 47.6812C66.863 47.6812 64.9266 48.0634 63.1446 48.7595L63.2509 48.7215C63.6179 49.5796 63.8482 50.5744 63.8812 51.6173V51.6299C63.8407 53.7688 62.6915 55.6293 60.9829 56.6671L60.955 56.6823C60.1703 57.2392 59.2743 57.7277 58.32 58.1074L58.2314 58.1378C57.6517 58.4213 56.9708 58.5858 56.252 58.5858C56.1684 58.5858 56.0874 58.5833 56.0064 58.5782H56.0191C54.4177 58.2424 54.038 56.8502 54.88 54.4016C55.2471 53.336 55.7609 52.4121 56.4114 51.5995L56.3962 51.6173C57.229 50.5288 58.1428 49.5745 59.1528 48.7291L59.1806 48.7063L58.9326 48.3368C58.4693 47.547 58.0441 46.6282 57.7024 45.6688L57.6669 45.5524C57.4138 44.7086 57.2029 43.9079 57.0341 43.1502L56.9076 42.2643L55.6419 44.6664C54.5451 46.6914 53.4904 48.4625 52.4779 49.9795L52.0982 50.6123C52.5234 51.6451 52.8373 52.8424 52.9791 54.0928L52.9841 54.1561C52.9942 54.2751 52.9993 54.4168 52.9993 54.5586C52.9993 56.4773 52.0526 58.1732 50.5997 59.2085L50.582 59.2211C49.8884 59.6489 49.0607 60.0919 48.2026 60.4868L48.0507 60.55C47.1572 60.9373 46.1219 61.1904 45.036 61.2461H45.0132C44.9297 61.2512 44.831 61.2563 44.7322 61.2563C44.0994 61.2563 43.4995 61.112 42.9629 60.8563L42.9882 60.8664C42.6667 60.5905 42.4642 60.1855 42.4642 59.7324C42.4642 59.5021 42.5174 59.2819 42.6111 59.087L42.606 59.0971C43.6185 57.6771 44.6158 56.4418 45.6764 55.2623L45.6435 55.3002L48.4279 51.759L47.9242 50.6199C47.5192 49.8758 47.1319 48.9974 46.8205 48.0862L46.7851 47.9647C46.532 47.1209 46.321 46.3202 46.1523 45.5625L46.0257 44.6766L44.7601 47.7141C43.7493 50.0749 42.8212 52.099 41.9757 53.7865C40.7152 56.3178 39.6605 58.2584 38.8117 59.6084L38.5585 59.9881C37.5477 61.5895 36.5774 62.3903 35.6476 62.3903C34.7178 62.3903 34.0875 61.7996 33.7568 60.6184C33.5138 59.7476 33.372 58.7478 33.372 57.715C33.372 57.6239 33.372 57.5328 33.3745 57.4417V57.4543L33.6277 55.6824V55.809C32.9527 57.4104 32.2777 58.8862 31.6027 60.2362C31.1546 61.112 30.6939 61.8587 30.1776 62.5624L30.2105 62.5143C29.689 63.061 28.955 63.4002 28.1424 63.4002C28.1348 63.4002 28.1298 63.4002 28.1222 63.4002C28.069 63.4053 28.0083 63.4053 27.9475 63.4053C27.3071 63.4053 26.7249 63.1623 26.2845 62.7649L26.287 62.7674C25.4036 61.8612 24.748 60.7298 24.4088 59.4667L24.3962 59.4135C23.9811 58.2618 23.7431 56.9304 23.7431 55.5432C23.7431 55.3635 23.7482 55.1863 23.7558 55.0117V55.037C23.9557 53.0221 24.3582 51.1768 24.948 49.4176L24.8948 49.5973L20.3411 52.2551V52.3817C21.0018 53.7536 21.3891 55.3635 21.3891 57.0645C21.3891 57.3758 21.3764 57.6847 21.3511 57.9884L21.3536 57.9479C21.2195 60.5551 20.3867 62.9421 19.0426 64.9595L19.0755 64.9088C17.6656 67.1465 15.633 68.8753 13.2182 69.8752L13.1347 69.9055C11.7754 70.5156 10.1857 70.8725 8.51512 70.8725C7.45706 70.8725 6.42937 70.7307 5.45737 70.4624L5.53837 70.4801C4.73344 70.2093 4.07531 69.6727 3.65765 68.9791L3.65006 68.9639C3.06028 68.1084 2.68819 67.0629 2.62997 65.9365V65.9213C2.60212 65.6657 2.58694 65.3695 2.58694 65.0683C2.58694 63.7698 2.88309 62.5396 3.41212 61.4436L3.38934 61.4942C4.84228 59.0161 6.85209 57.0088 9.25172 55.5964L9.32765 55.5559C11.0261 54.3788 12.9777 53.2373 15.0154 52.2425L15.2837 52.1235L15.9165 51.7438C15.1571 51.1532 13.7649 50.1407 11.7399 48.7063C9.03403 46.8939 6.6825 45.0638 4.46512 43.0844L4.5284 43.1401C2.38444 41.2948 0.822655 38.8294 0.121498 36.0222L0.101248 35.926C0.0354358 35.5362 -0.00253296 35.0882 -0.00253296 34.6326C-0.00253296 33.2049 0.364498 31.8634 1.00744 30.6965L0.987186 30.7395C2.40469 27.6919 4.36894 25.1227 6.77869 23.0572L6.80906 23.0318C9.41625 20.5689 12.3677 18.425 15.5722 16.6885L15.7925 16.5797C18.6553 14.9268 21.9991 13.3903 25.4846 12.1576L25.9149 12.026C29.1524 10.8413 32.8911 10.1478 36.7892 10.1351H36.7942C36.9714 10.1301 37.1815 10.125 37.3916 10.125C40.5329 10.125 43.5046 10.8515 46.1472 12.1449L46.0308 12.0918C48.3089 13.1296 50.015 15.0837 50.6984 17.4732L50.7136 17.534C50.9237 18.349 51.0427 19.2856 51.0427 20.25C51.0427 21.8498 50.7111 23.3736 50.1162 24.7556L50.1441 24.6822C49.0607 27.3071 47.5192 29.5422 45.5954 31.3824L45.5878 31.39C43.6387 33.3214 41.3024 34.8654 38.7079 35.8957L38.5687 35.9438C35.8501 37.1107 32.6936 37.8447 29.3802 37.9662L29.3321 37.9688C28.8461 38.0244 28.2842 38.0548 27.7147 38.0548C26.2162 38.0548 24.7708 37.8397 23.4039 37.4372L23.5128 37.465C22.2902 37.0752 21.2347 36.4703 20.3386 35.6856L20.3487 35.6932C19.721 35.1818 19.2097 34.5516 18.8452 33.8352L18.83 33.8023C18.5768 33.1273 18.5557 32.7265 18.7667 32.6C18.9776 32.4734 19.1253 32.4523 19.2097 32.5367L19.8425 33.1695C20.5487 33.8251 21.3916 34.3415 22.3231 34.6705L22.3737 34.6857C23.6545 35.1312 25.1328 35.3894 26.6692 35.3894C27.1628 35.3894 27.6488 35.3641 28.1273 35.3109L28.069 35.316C32.1646 34.8325 35.8577 33.4353 39.0445 31.3343L38.9509 31.3926C41.6441 29.7903 43.8235 27.5881 45.3575 24.9632L45.403 24.8771C46.1649 23.7583 46.6206 22.3763 46.6206 20.8879C46.6206 19.9741 46.4484 19.0983 46.1346 18.2933L46.1523 18.3414C45.2056 16.8455 43.6742 15.7925 41.8871 15.5014L41.8517 15.4963C40.4646 15.1546 38.8699 14.9572 37.2322 14.9572C35.9134 14.9572 34.6224 15.0837 33.3745 15.3267L33.5011 15.3065C29.2309 16.076 25.4137 17.3948 21.8928 19.2071L22.1231 19.0983C11.7484 24.3295 6.3914 29.6865 6.05222 35.1692V35.2932C6.05222 37.503 6.92044 39.5103 8.3354 40.9936L8.33287 40.9911C9.94528 42.7832 11.7273 44.3652 13.6738 45.7321L13.7725 45.7979C15.5469 47.1243 17.1163 48.4937 18.5768 49.9719L18.5794 49.977L18.8325 50.2301L26.9325 45.803C27.8564 44.4665 28.9676 43.3375 30.2434 42.4263L30.2839 42.3984C31.2964 41.5479 32.5822 40.9936 33.9922 40.8822L34.0149 40.8797C34.0656 40.8746 34.1238 40.8746 34.1845 40.8746C35.1287 40.8746 35.9387 41.4442 36.288 42.2592L36.2931 42.2744C36.5588 42.8693 36.7132 43.5653 36.7132 44.2969C36.7132 44.5196 36.6981 44.7398 36.6702 44.9575L36.6727 44.9322L36.4272 46.1801L36.8069 45.927C37.0702 45.727 37.4017 45.6081 37.7612 45.6081C37.989 45.6081 38.2042 45.6562 38.3991 45.7422L38.3889 45.7372C38.8749 45.8637 39.2268 46.2991 39.2268 46.8155C39.2268 46.9041 39.2167 46.9901 39.1964 47.0737L39.1989 47.0661L38.8193 48.4583C38.0599 51.4941 37.5545 53.687 37.303 55.037C37.1765 55.4749 37.1056 55.9786 37.1056 56.5C37.1056 56.6089 37.1081 56.7152 37.1157 56.8215V56.8063C37.1579 57.3126 37.2212 57.5657 37.3056 57.5657C37.3899 57.5657 37.5578 57.3126 37.8093 56.8063L38.189 55.9204C38.2733 55.9204 38.2733 55.9626 38.189 56.0469L39.5812 53.136C42.8718 45.8831 44.6428 41.8331 44.8942 40.986L45.6536 38.5838C45.738 38.4151 46.0755 38.2472 46.6661 38.0801C47.266 37.9181 47.952 37.8245 48.6607 37.8245C48.719 37.8245 48.7772 37.8245 48.8329 37.827H48.8253C50.0065 37.827 50.5972 38.1223 50.5972 38.7129L50.4706 39.3458C50.1871 40.1254 49.9061 41.0999 49.6884 42.0972L49.6606 42.2567C49.61 42.5832 49.5796 42.9578 49.5796 43.3426C49.5796 43.8539 49.6302 44.3526 49.7289 44.836L49.7213 44.7879L49.8479 45.2917C50.1061 46.3472 50.4984 47.2736 51.0123 48.1191L50.987 48.076C51.9978 46.3902 52.9681 44.6614 53.8979 42.8895C54.632 41.6669 55.3154 40.2494 55.8647 38.7661L55.9229 38.5889C56.1127 37.6346 56.3304 36.8297 56.5962 36.045L56.5557 36.1868C56.6401 35.9336 57.0004 35.7438 57.6366 35.6172C58.239 35.4957 58.93 35.4274 59.6362 35.4274H59.7274H59.7223C60.9036 35.4274 61.5338 35.7227 61.6132 36.3133L61.36 36.817C61.0588 37.6675 60.7956 38.6902 60.6184 39.7406L60.6032 39.8545C60.5804 40.1001 60.5652 40.3836 60.5652 40.6721C60.5652 41.2771 60.626 41.8694 60.7399 42.4415L60.7297 42.3833V42.887C61.0208 43.9906 61.4537 44.9601 62.0207 45.8384L61.9954 45.7979L62.3751 46.6838C64.4887 45.646 66.9743 45.0385 69.6018 45.0385H69.7005H69.6954L69.6929 45.0461ZM15.4254 63.4053C17.1847 61.5878 18.2706 59.1072 18.2706 56.3735C18.2706 55.3179 18.1086 54.3004 17.8099 53.3436L17.8301 53.4144L15.8051 54.6801C13.7396 55.8571 11.9526 57.1708 10.3351 58.6643L10.3553 58.6465C9.12769 59.7755 8.2215 61.236 7.776 62.8838L7.76081 62.9471C7.38112 64.5081 7.57097 65.5206 8.33034 65.9846C8.79356 66.1973 9.33778 66.3213 9.90731 66.3213C10.53 66.3213 11.1198 66.1745 11.6387 65.9112L11.6159 65.9213C13.1195 65.3746 14.3927 64.5064 15.4052 63.3952L15.4128 63.3876L15.4254 63.4053ZM32.3772 51.7514C32.7991 50.6545 33.2632 49.3467 33.7694 47.828C34.4444 45.803 34.6764 44.6226 34.4655 44.2868C34.2546 43.9509 33.8538 43.9088 33.2632 44.1602C32.5595 44.5019 31.9697 44.9702 31.4989 45.5448L31.4913 45.5549C30.9648 46.2206 30.4636 46.9648 30.0181 47.747L29.9725 47.833C29.4612 48.6709 29.0284 49.6353 28.7272 50.6579L28.7044 50.744C28.2158 52.0678 27.9323 53.5992 27.9323 55.1939C27.9323 55.4091 27.9374 55.6217 27.9475 55.8343V55.8039C28.0319 57.4898 28.3019 58.3968 28.7575 58.525C29.2132 58.6533 29.7405 58.0416 30.3396 56.6899C30.9192 55.6445 31.4356 54.4295 31.8203 53.1563L31.8558 53.0196C32.1072 52.4222 32.2793 51.9995 32.3722 51.7514H32.3772ZM46.4155 58.4592C48.1697 57.672 49.4049 56.014 49.5771 54.0523L49.5796 54.0321V53.9055L48.1874 55.6774L45.6587 58.4618C45.6207 58.4921 45.5954 58.5377 45.5954 58.5883C45.5954 58.6389 45.6207 58.6845 45.6562 58.7149C45.7372 58.7976 45.9903 58.7132 46.4155 58.4618V58.4592ZM57.2974 56.0545C59.211 55.5078 60.588 53.7739 60.588 51.721C60.588 51.6881 60.588 51.6552 60.588 51.6223V51.6274C60.5627 51.1211 60.4716 50.6453 60.3222 50.1947L60.3323 50.2327C59.3477 51.1085 58.5402 52.1564 57.9555 53.3385L57.9277 53.3967C57.1666 54.9138 56.954 55.798 57.2898 56.0495L57.2974 56.0545Z" fill="#C7C7C7"/>
</g>
<defs>
<clipPath id="clip0_403_83">
<rect width="81" height="81" fill="white"/>
</clipPath>
</defs>
</svg>
