<svg width="83" height="77" viewBox="0 0 83 77" fill="none" xmlns="http://www.w3.org/2000/svg">
<g clip-path="url(#clip0_403_62)">
<path d="M15.0337 0H2.76667C1.77602 0 0.860976 0.566957 0.367574 1.48651C-0.125829 2.40607 -0.12228 3.53779 0.376879 4.4538L39.1102 75.5305C39.6061 76.4403 40.516 77 41.5 77C42.484 77 43.394 76.4403 43.8898 75.5305L82.6232 4.4538C83.1223 3.53779 83.1257 2.40607 82.6326 1.48651C82.1391 0.566957 81.2238 0 80.2334 0H67.9665L41.5002 47.2178L15.0337 0Z" fill="#C7C7C7"/>
<path d="M61 0H44.8209L41.0001 7.79454L37.1791 0H21L41.0002 34L61 0Z" fill="#C7C7C7"/>
</g>
<defs>
<clipPath id="clip0_403_62">
<rect width="83" height="77" fill="white"/>
</clipPath>
</defs>
</svg>
