<svg width="21" height="20" viewBox="0 0 21 20" fill="none" xmlns="http://www.w3.org/2000/svg">
<path d="M9.175 11.7L7.775 10.275C7.575 10.075 7.33767 9.97498 7.063 9.97498C6.78767 9.97498 6.55 10.075 6.35 10.275C6.15 10.475 6.05 10.7166 6.05 11C6.05 11.2833 6.14167 11.5166 6.325 11.7L8.475 13.85C8.675 14.05 8.90833 14.15 9.175 14.15C9.44167 14.15 9.675 14.05 9.875 13.85L14.125 9.62498C14.325 9.42498 14.425 9.18731 14.425 8.91198C14.425 8.63731 14.325 8.39998 14.125 8.19998C13.925 7.99998 13.6833 7.89998 13.4 7.89998C13.1167 7.89998 12.8833 7.99164 12.7 8.17498L9.175 11.7ZM10.225 20C8.975 20 7.80433 19.7626 6.713 19.288C5.621 18.8126 4.671 18.1706 3.863 17.362C3.05433 16.554 2.41233 15.604 1.937 14.512C1.46233 13.4206 1.225 12.25 1.225 11C1.225 9.74998 1.46233 8.57898 1.937 7.48698C2.41233 6.39564 3.05433 5.44564 3.863 4.63698C4.671 3.82898 5.621 3.18764 6.713 2.71298C7.80433 2.23764 8.975 1.99998 10.225 1.99998C11.475 1.99998 12.646 2.23764 13.738 2.71298C14.8293 3.18764 15.7793 3.82898 16.588 4.63698C17.396 5.44564 18.0377 6.39564 18.513 7.48698C18.9877 8.57898 19.225 9.74998 19.225 11C19.225 12.25 18.9877 13.4206 18.513 14.512C18.0377 15.604 17.396 16.554 16.588 17.362C15.7793 18.1706 14.8293 18.8126 13.738 19.288C12.646 19.7626 11.475 20 10.225 20ZM1.65 5.32498C1.46667 5.50831 1.23767 5.59564 0.963 5.58698C0.687667 5.57898 0.458333 5.48331 0.275 5.29998C0.0916666 5.11664 0 4.88331 0 4.59998C0 4.31664 0.0916666 4.08331 0.275 3.89998L3.15 1.02498C3.33333 0.841643 3.56267 0.753976 3.838 0.761976C4.11267 0.770643 4.34167 0.866643 4.525 1.04998C4.70833 1.23331 4.8 1.46664 4.8 1.74998C4.8 2.03331 4.70833 2.26664 4.525 2.44998L1.65 5.32498ZM18.775 5.29998L15.9 2.42498C15.7167 2.24164 15.6293 2.01231 15.638 1.73698C15.646 1.46231 15.7417 1.23331 15.925 1.04998C16.1083 0.866643 16.3417 0.774976 16.625 0.774976C16.9083 0.774976 17.1417 0.866643 17.325 1.04998L20.2 3.92498C20.3833 4.10831 20.471 4.33731 20.463 4.61198C20.4543 4.88731 20.3583 5.11664 20.175 5.29998C19.9917 5.48331 19.7583 5.57498 19.475 5.57498C19.1917 5.57498 18.9583 5.48331 18.775 5.29998ZM10.225 18C12.175 18 13.829 17.3206 15.187 15.962C16.5457 14.604 17.225 12.95 17.225 11C17.225 9.04998 16.5457 7.39564 15.187 6.03698C13.829 4.67898 12.175 3.99998 10.225 3.99998C8.275 3.99998 6.621 4.67898 5.263 6.03698C3.90433 7.39564 3.225 9.04998 3.225 11C3.225 12.95 3.90433 14.604 5.263 15.962C6.621 17.3206 8.275 18 10.225 18Z" fill="#757378"/>
</svg>
