<svg width="20" height="20" viewBox="0 0 20 20" fill="none" xmlns="http://www.w3.org/2000/svg">
<path d="M8.96718 10.8029L7.59889 9.39556C7.40342 9.19804 7.17147 9.09928 6.90302 9.09928C6.63392 9.09928 6.40164 9.19804 6.20617 9.39556C6.0107 9.59308 5.91297 9.83175 5.91297 10.1116C5.91297 10.3914 6.00256 10.6218 6.18174 10.8029L8.28304 12.9262C8.47851 13.1238 8.70656 13.2225 8.96718 13.2225C9.22781 13.2225 9.45586 13.1238 9.65133 12.9262L13.8051 8.75362C14.0005 8.5561 14.0983 8.32138 14.0983 8.04946C14.0983 7.7782 14.0005 7.54381 13.8051 7.34628C13.6096 7.14876 13.3734 7.05 13.0965 7.05C12.8196 7.05 12.5915 7.14053 12.4123 7.3216L8.96718 10.8029ZM9.9934 19C8.77171 19 7.62756 18.7656 6.56095 18.2968C5.49368 17.8274 4.5652 17.1933 3.7755 16.3947C2.98515 15.5967 2.35769 14.6585 1.89313 13.58C1.42921 12.5022 1.19725 11.3461 1.19725 10.1116C1.19725 8.87707 1.42921 7.72059 1.89313 6.64212C2.35769 5.56432 2.98515 4.6261 3.7755 3.82746C4.5652 3.02947 5.49368 2.39609 6.56095 1.92731C7.62756 1.45787 8.77171 1.22315 9.9934 1.22315C11.2151 1.22315 12.3596 1.45787 13.4268 1.92731C14.4934 2.39609 15.4219 3.02947 16.2123 3.82746C17.002 4.6261 17.6291 5.56432 18.0937 6.64212C18.5576 7.72059 18.7895 8.87707 18.7895 10.1116C18.7895 11.3461 18.5576 12.5022 18.0937 13.58C17.6291 14.6585 17.002 15.5967 16.2123 16.3947C15.4219 17.1933 14.4934 17.8274 13.4268 18.2968C12.3596 18.7656 11.2151 19 9.9934 19ZM1.61263 4.50693C1.43345 4.68799 1.20963 4.77424 0.941188 4.76568C0.672091 4.75778 0.447952 4.6633 0.268771 4.48224C0.0895904 4.30118 0 4.07074 0 3.79091C0 3.51109 0.0895904 3.28065 0.268771 3.09959L3.07865 0.260235C3.25783 0.0791746 3.48197 -0.0074053 3.75107 0.000495522C4.01951 0.00905475 4.24333 0.103864 4.42251 0.284925C4.60169 0.465986 4.69128 0.696426 4.69128 0.976247C4.69128 1.25607 4.60169 1.48651 4.42251 1.66757L1.61263 4.50693ZM18.3497 4.48224L15.5399 1.64288C15.3607 1.46182 15.2753 1.23533 15.2838 0.963408C15.2916 0.692147 15.3851 0.465986 15.5643 0.284925C15.7435 0.103864 15.9715 0.0133344 16.2484 0.0133344C16.5254 0.0133344 16.7534 0.103864 16.9326 0.284925L19.7425 3.12428C19.9216 3.30534 20.0073 3.5315 19.9995 3.80277C19.991 4.07469 19.8972 4.30118 19.718 4.48224C19.5389 4.6633 19.3108 4.75383 19.0339 4.75383C18.757 4.75383 18.5289 4.6633 18.3497 4.48224ZM9.9934 17.0248C11.8992 17.0248 13.5158 16.3539 14.843 15.0121C16.1709 13.6709 16.8348 12.0374 16.8348 10.1116C16.8348 8.18575 16.1709 6.55192 14.843 5.2101C13.5158 3.86894 11.8992 3.19835 9.9934 3.19835C8.08757 3.19835 6.47103 3.86894 5.14379 5.2101C3.8159 6.55192 3.15195 8.18575 3.15195 10.1116C3.15195 12.0374 3.8159 13.6709 5.14379 15.0121C6.47103 16.3539 8.08757 17.0248 9.9934 17.0248Z" fill="#757378"/>
</svg>