<svg width="132" height="116" viewBox="0 0 132 116" fill="none" xmlns="http://www.w3.org/2000/svg">
<g clip-path="url(#clip0_509_6)">
<path d="M34.6816 75.0572C32.8652 76.1098 32.242 78.4354 33.2946 80.248C34.3396 82.0682 36.6728 82.6876 38.4816 81.6388C40.3018 80.5938 40.925 78.2644 39.8762 76.4442C38.8274 74.6354 36.5018 74.0122 34.6816 75.0572ZM38.4854 45.1284C36.6652 44.0796 34.3434 44.7028 33.2946 46.5192C32.2458 48.3356 32.8728 50.6612 34.6816 51.71C36.5018 52.7588 38.8236 52.1394 39.8762 50.3192C40.9212 48.499 40.298 46.181 38.4854 45.1284ZM36.3764 63.3836C36.3726 61.286 34.674 59.5874 32.5726 59.5836C30.4712 59.5836 28.7726 61.286 28.7726 63.3836C28.7726 65.485 30.4788 67.1836 32.5726 67.1836C34.6702 67.1836 36.3726 65.485 36.3764 63.3836ZM65.587 13.6568V10.138H69.387C70.432 10.138 71.287 9.28299 71.287 8.23799V6.33799C71.287 5.29299 70.432 4.43799 69.387 4.43799H55.612C54.567 4.43799 53.712 5.29299 53.712 6.33799V8.23799C53.712 9.28299 54.567 10.138 55.612 10.138H59.412V13.6568C33.3136 15.268 12.6302 36.8786 12.6226 63.3798C12.6302 90.926 34.9552 113.251 62.5014 113.262C90.0476 113.251 112.373 90.926 112.376 63.3798C112.373 36.8748 91.6892 15.2642 65.587 13.6568ZM62.5014 101.851C41.2556 101.817 24.0644 84.6256 24.0264 63.3798C24.0644 42.134 41.2556 24.9428 62.5014 24.9048C83.7434 24.9428 100.938 42.1378 100.973 63.3798C100.938 84.6256 83.7472 101.817 62.5014 101.851ZM49.437 86.0126C47.6206 84.9676 45.2988 85.5908 44.2462 87.4072C43.2012 89.2274 43.8244 91.5492 45.637 92.5942C47.4534 93.6468 49.7828 93.016 50.824 91.2072C51.8766 89.3908 51.2534 87.0652 49.437 86.0126ZM49.437 40.7546C51.2572 39.7058 51.8766 37.3802 50.8278 35.5638C49.779 33.7474 47.4534 33.1242 45.637 34.173C43.8206 35.2218 43.1974 37.5474 44.2462 39.3638C45.2988 41.1802 47.6206 41.8034 49.437 40.7546ZM90.325 51.71C92.1414 50.665 92.7684 48.3356 91.7158 46.5192C90.6708 44.7028 88.3338 44.0796 86.525 45.1284C84.7048 46.1848 84.0854 48.5104 85.1342 50.323C86.183 52.1356 88.5086 52.7588 90.325 51.71ZM62.5052 89.5162C60.4076 89.5162 58.7052 91.2148 58.7052 93.3162C58.7052 95.4138 60.4076 97.1162 62.5052 97.1162C64.6028 97.1162 66.3052 95.4138 66.3052 93.3162C66.3052 91.2148 64.6028 89.5162 62.5052 89.5162ZM79.3658 34.1692C77.5532 33.1204 75.22 33.7474 74.1788 35.56C73.1338 37.384 73.757 39.7058 75.5696 40.7546C77.3822 41.8034 79.7078 41.1802 80.7604 39.3638C81.8092 37.5512 81.1898 35.2218 79.3658 34.1692ZM92.4378 59.5798C90.3326 59.5874 88.634 61.2898 88.634 63.3798C88.6378 65.4774 90.3364 67.1798 92.4378 67.1798C94.5316 67.1798 96.2378 65.4812 96.2378 63.3798C96.2378 61.2898 94.5316 59.5798 92.4378 59.5798ZM90.3288 75.0572C88.5048 74.0122 86.1792 74.6354 85.1342 76.4442C84.0892 78.2644 84.7086 80.59 86.5288 81.6388C88.3414 82.6838 90.667 82.0644 91.7158 80.248C92.7646 78.4354 92.1414 76.106 90.3288 75.0572ZM62.5052 29.6548C60.4076 29.6548 58.7052 31.3572 58.7052 33.4548L56.9344 61.3582L45.5192 68.8062C43.7028 69.8588 43.0796 72.1844 44.1322 73.997C45.1772 75.8172 47.5104 76.4366 49.3192 75.3878L61.8782 69.019C62.0872 69.0418 62.2924 69.0836 62.509 69.0836C65.6554 69.0836 68.209 66.53 68.209 63.3836L66.309 33.4548C66.3052 31.3534 64.6028 29.6548 62.5052 29.6548ZM75.5696 86.0126C73.7494 87.0614 73.1262 89.387 74.1788 91.2072C75.2238 93.0198 77.5532 93.6468 79.3696 92.5942C81.186 91.5454 81.8092 89.216 80.7604 87.4072C79.7078 85.587 77.386 84.9676 75.5696 86.0126ZM46.15 12.2736C42.9732 8.32159 38.1586 5.74519 32.6942 5.74519C23.1182 5.74519 15.3586 13.5048 15.3586 23.0808C15.3586 26.7174 16.4872 30.0842 18.3986 32.8696C25.0676 23.2594 34.7842 15.9216 46.15 12.2736ZM106.604 32.8734C108.516 30.088 109.644 26.7212 109.644 23.0846C109.644 13.5086 101.881 5.74899 92.3086 5.74899C86.8442 5.74899 82.0334 8.32539 78.8528 12.2736C90.2186 15.9216 99.9352 23.2594 106.604 32.8734Z" fill="white"/>
</g>
<rect y="46" width="48" height="5.04348" rx="2.52174" fill="white"/>
<rect x="9" y="56.0435" width="39" height="5.04348" rx="2.52174" fill="white"/>
<rect x="17" y="66.0869" width="31" height="5.04348" rx="2.52174" fill="white"/>
<rect x="24" y="76.1304" width="24" height="5.04348" rx="2.52174" fill="white"/>
<defs>
<clipPath id="clip0_509_6">
<rect width="79" height="116" fill="white" transform="translate(53)"/>
</clipPath>
</defs>
</svg>
