<svg width="38" height="48" viewBox="0 0 38 48" fill="none" xmlns="http://www.w3.org/2000/svg">
<path d="M14.74 42.737V37.5286L14.8087 33.8272C14.8912 32.6758 15.3411 31.5905 16.0812 30.7504C16.0921 30.738 16.103 30.7258 16.114 30.7135C16.1425 30.6818 16.1237 30.6305 16.0812 30.6252C11.1355 30.0096 5.9825 27.9271 5.9825 18.8604C5.95026 16.6273 6.68084 14.4625 8.03114 12.7646C8.07838 12.7052 8.12636 12.6464 8.17511 12.5881C8.23856 12.5123 8.25931 12.4096 8.23025 12.3152C8.22848 12.3095 8.22672 12.3038 8.22497 12.298C8.19201 12.1902 8.16107 12.0818 8.13217 11.9731C7.63581 10.1039 7.74254 8.10724 8.44112 6.30527C8.44626 6.29197 8.45147 6.27868 8.45669 6.26539C8.48277 6.19906 8.53753 6.14837 8.60787 6.13585C9.04645 6.05787 10.8188 5.95353 14.2117 8.29005C14.3174 8.36277 14.4245 8.43786 14.5333 8.51538C14.6118 8.57134 14.7116 8.5885 14.8045 8.56215L14.8133 8.55964C14.9954 8.50801 15.178 8.45903 15.3611 8.41265C18.5863 7.59568 21.947 7.59568 25.1722 8.41265C25.3459 8.45661 25.5189 8.50295 25.6918 8.55162L25.703 8.55482C25.8122 8.58567 25.9295 8.56552 26.022 8.49981C26.1232 8.42779 26.223 8.35788 26.3215 8.29005C29.7065 5.95846 31.4691 6.05744 31.9097 6.13536C31.9813 6.14804 32.0372 6.19965 32.0642 6.26718C32.0677 6.27587 32.0709 6.28454 32.0744 6.29323C32.7848 8.09601 32.8976 10.0986 32.4009 11.9731C32.3713 12.0848 32.3395 12.1961 32.3056 12.3068C32.275 12.4065 32.297 12.5148 32.3638 12.5949L32.3701 12.6024C32.4148 12.6559 32.4589 12.71 32.5021 12.7646C33.8525 14.4625 34.5831 16.6273 34.5508 18.8604C34.5508 27.9766 29.3612 30.0045 24.3918 30.557C24.363 30.5601 24.3502 30.5945 24.3696 30.6159C24.3769 30.624 24.3845 30.6321 24.3918 30.6403C24.8932 31.1973 25.2822 31.8583 25.534 32.5826C25.7973 33.3398 25.9044 34.1484 25.8483 34.9536V42.737" stroke="#202020" stroke-width="4" stroke-linecap="round" stroke-linejoin="round"/>
<path d="M3.94073 34.5967C4.69407 34.7031 5.41331 34.9799 6.04402 35.4056C6.67472 35.8316 7.20033 36.3953 7.58101 37.0547C7.90449 37.6416 8.34059 38.1589 8.86431 38.5767C9.38802 38.9945 9.98906 39.3049 10.6329 39.4896C11.2767 39.6746 11.9507 39.7304 12.6162 39.6539C13.2816 39.5776 13.9254 39.3704 14.5107 39.0444" stroke="#202020" stroke-width="4" stroke-linecap="round" stroke-linejoin="round"/>
</svg>
