<svg width="42" height="42" viewBox="0 0 42 42" fill="none" xmlns="http://www.w3.org/2000/svg">
<g clip-path="url(#clip0_404_151)">
<path fill-rule="evenodd" clip-rule="evenodd" d="M9.55697 41.0336V13.9989H0.572168V41.0335H9.55697V41.0336ZM5.06551 10.3092C8.19771 10.3092 10.1488 8.23149 10.1488 5.63725C10.0896 2.98534 8.19771 0.966309 5.12425 0.966309C2.05029 0.966391 0.0410156 2.98543 0.0410156 5.63733C0.0410156 8.23157 1.99106 10.3093 5.00637 10.3093L5.06551 10.3092ZM14.5297 41.0336C14.5297 41.0336 14.6476 16.5355 14.5297 13.999H23.5159V17.9196H23.4563C24.6378 16.0747 26.7666 13.3642 31.6134 13.3642C37.5267 13.3642 41.9589 17.2281 41.9589 25.5321V41.0337H32.9742V26.5709C32.9742 22.9368 31.6742 20.457 28.4217 20.457C25.9399 20.457 24.4609 22.1288 23.8114 23.7448C23.5737 24.32 23.5159 25.128 23.5159 25.936V41.0336H14.5297Z" fill="#202020"/>
</g>
<defs>
<clipPath id="clip0_404_151">
<rect width="42" height="42" fill="white"/>
</clipPath>
</defs>
</svg>
