<svg width="20" height="21" viewBox="0 0 20 21" fill="none" xmlns="http://www.w3.org/2000/svg">
<path d="M18.1818 4.68602L7.80909 15.0678L3.95455 11.2133L5.23636 9.93147L7.80909 12.5042L16.9 3.41329L18.1818 4.68602ZM9.09091 18.1587C5.08182 18.1587 1.81818 14.8951 1.81818 10.886C1.81818 6.87693 5.08182 3.61329 9.09091 3.61329C10.5182 3.61329 11.8545 4.03147 12.9818 4.74966L14.3 3.43147C12.7718 2.36621 10.9537 1.7951 9.09091 1.79511C4.07273 1.79511 0 5.86784 0 10.886C0 15.9042 4.07273 19.9769 9.09091 19.9769C10.6636 19.9769 12.1455 19.5769 13.4364 18.8678L12.0727 17.5042C11.1636 17.9224 10.1545 18.1587 9.09091 18.1587ZM15.4545 13.6133H12.7273V15.4315H15.4545V18.1587H17.2727V15.4315H20V13.6133H17.2727V10.886H15.4545V13.6133Z" fill="#757378"/>
</svg>
