<svg width="139" height="175" viewBox="0 0 139 175" fill="none" xmlns="http://www.w3.org/2000/svg">
<g clip-path="url(#clip0_114_1723)">
<path d="M128.005 133.58C120.108 120.587 69.3415 112.433 69.3415 112.433C69.3415 112.433 18.5737 120.587 10.6764 133.58C4.84094 151.612 -0.0415802 174.523 -0.0415802 174.523H69.3415H138.723C138.725 174.523 135.43 149.957 128.005 133.58Z" fill="#F1C9A5"/>
<path d="M69.3431 112.433C69.3431 112.433 120.109 120.587 128.007 133.58C135.43 149.957 138.725 174.523 138.725 174.523H69.3431V112.433Z" fill="#E4B692"/>
<path d="M83.1634 86.0176H55.5228V126.229H83.1634V86.0176Z" fill="#F1C9A5"/>
<path d="M83.165 86.0176H69.3431V126.229H83.165V86.0176Z" fill="#E4B692"/>
<path opacity="0.1" d="M55.5228 104.65C58.0094 110.852 68.0385 114.409 75.4061 114.409C78.074 114.409 80.6657 114.02 83.1634 113.309V86.0176H55.5228V104.65Z" fill="#DDAC8C"/>
<path d="M128.005 133.58C123.395 125.992 104.175 120.06 88.9734 116.434C88.3784 125.421 79.832 132.556 69.3415 132.556C58.8526 132.556 50.3062 125.421 49.7112 116.434C34.5068 120.06 15.2901 125.992 10.6764 133.58C4.84094 151.612 -0.0415802 174.523 -0.0415802 174.523H69.3415H138.723C138.725 174.523 135.43 149.957 128.005 133.58Z" fill="white"/>
<path d="M104.878 60.6425C104.878 35.526 88.9671 21.2446 69.3415 21.2446C49.7144 21.2446 33.8036 35.526 33.8036 60.6425C33.8036 71.1652 37.5088 94.4632 43.828 99.2107C48.1712 102.563 62.3415 108.305 69.2683 108.305H69.2715C69.2954 108.305 69.3176 108.302 69.3447 108.302C69.3685 108.302 69.3892 108.305 69.4131 108.305H69.4163C76.3479 108.305 90.5182 102.563 94.8566 99.2107C101.429 93.177 104.878 70.3008 104.878 60.6425Z" fill="#F1C9A5"/>
<path d="M69.3463 108.303C69.3701 108.303 69.3908 108.306 69.4147 108.306H69.4179C76.3495 108.306 90.5198 102.564 94.8582 99.2122C101.429 93.1771 104.879 70.3023 104.879 60.644C104.879 35.5275 88.9686 21.2461 69.3431 21.2461V108.303H69.3463Z" fill="#E4B692"/>
<path d="M99.4719 78.0604C93.0303 77.474 88.6807 71.4404 89.7705 64.5922C90.8475 57.7371 96.9503 52.6465 103.393 53.2301C109.832 53.8137 114.175 59.8446 113.089 66.6984C112.008 73.5535 105.914 78.6385 99.4719 78.0604Z" fill="#E4B692"/>
<path d="M25.849 66.6984C24.7608 59.8432 29.1056 53.8137 35.5409 53.2301C41.9889 52.6465 48.09 57.7371 49.1703 64.5922C50.2584 71.4418 45.9041 77.474 39.4657 78.0604C33.024 78.6385 26.9292 73.5535 25.849 66.6984Z" fill="#F1C9A5"/>
<path d="M34.4066 38.5574C30.9352 44.9063 31.379 54.5038 31.379 54.5038C31.379 54.5038 35.6125 55.5188 37.057 60.1281C37.057 49.0288 38.7927 36.4968 49.3469 35.6256C58.8621 34.8415 58.1383 38.4523 69.3431 38.4523C69.3431 25.2592 69.3431 17.9727 69.3431 17.9727C69.3431 17.9727 45.6575 17.9727 34.4066 38.5574Z" fill="#262421"/>
<path d="M104.278 38.5574C94.3094 17.9727 69.3431 17.9727 69.3431 17.9727C69.3431 17.9727 69.3431 25.2592 69.3431 38.4523C80.5463 38.4523 79.8225 34.8415 89.3377 35.6256C99.8919 36.4968 101.624 49.0288 101.624 60.1281C103.072 55.5188 107.286 54.3779 107.286 54.3779C107.286 54.3779 107.414 45.035 104.278 38.5574Z" fill="#262421"/>
</g>
<defs>
<clipPath id="clip0_114_1723">
<rect width="139" height="175" fill="white"/>
</clipPath>
</defs>
</svg>
