<svg width="12" height="20" viewBox="0 0 12 20" fill="none" xmlns="http://www.w3.org/2000/svg">
<path d="M1 0C0.447715 0 0 0.447715 0 1V5.58579C0 5.851 0.105357 6.10536 0.292893 6.29289L3.29289 9.29289C3.68342 9.68342 3.68342 10.3166 3.29289 10.7071L0.292893 13.7071C0.105357 13.8946 0 14.149 0 14.4142V19C0 19.5523 0.447715 20 1 20H11C11.5523 20 12 19.5523 12 19V14.4142C12 14.149 11.8946 13.8946 11.7071 13.7071L8.70711 10.7071C8.31658 10.3166 8.31658 9.68342 8.70711 9.29289L11.7071 6.29289C11.8946 6.10536 12 5.851 12 5.58579V1C12 0.447715 11.5523 0 11 0H1ZM9.70711 14.2071C9.89464 14.3946 10 14.649 10 14.9142V17C10 17.5523 9.55228 18 9 18H3C2.44772 18 2 17.5523 2 17V14.9142C2 14.649 2.10536 14.3946 2.29289 14.2071L5.29289 11.2071C5.68342 10.8166 6.31658 10.8166 6.70711 11.2071L9.70711 14.2071ZM6.70711 8.79289C6.31658 9.18342 5.68342 9.18342 5.29289 8.79289L2.29289 5.79289C2.10536 5.60536 2 5.351 2 5.08579V3C2 2.44772 2.44772 2 3 2H9C9.55228 2 10 2.44772 10 3V5.08579C10 5.351 9.89464 5.60536 9.70711 5.79289L6.70711 8.79289Z" fill="#E6E6E6"/>
</svg>
