<svg width="20" height="20" viewBox="0 0 20 20" fill="none" xmlns="http://www.w3.org/2000/svg">
<path d="M8 1.90476C7.71667 1.90476 7.47933 1.81333 7.288 1.63048C7.096 1.44825 7 1.22222 7 0.952381C7 0.68254 7.096 0.45619 7.288 0.273333C7.47933 0.0911111 7.71667 0 8 0H12C12.2833 0 12.521 0.0911111 12.713 0.273333C12.9043 0.45619 13 0.68254 13 0.952381C13 1.22222 12.9043 1.44825 12.713 1.63048C12.521 1.81333 12.2833 1.90476 12 1.90476H8ZM10 12.381C10.2833 12.381 10.521 12.2895 10.713 12.1067C10.9043 11.9244 11 11.6984 11 11.4286V7.61905C11 7.34921 10.9043 7.12286 10.713 6.94C10.521 6.75778 10.2833 6.66667 10 6.66667C9.71667 6.66667 9.47933 6.75778 9.288 6.94C9.096 7.12286 9 7.34921 9 7.61905V11.4286C9 11.6984 9.096 11.9244 9.288 12.1067C9.47933 12.2895 9.71667 12.381 10 12.381ZM10 20C8.76667 20 7.604 19.774 6.512 19.3219C5.42067 18.8692 4.46667 18.254 3.65 17.4762C2.83333 16.6984 2.18733 15.7898 1.712 14.7505C1.23733 13.7105 1 12.6032 1 11.4286C1 10.254 1.23733 9.14667 1.712 8.10667C2.18733 7.0673 2.83333 6.15873 3.65 5.38095C4.46667 4.60317 5.42067 3.98825 6.512 3.53619C7.604 3.08349 8.76667 2.85714 10 2.85714C11.0333 2.85714 12.025 3.01587 12.975 3.33333C13.925 3.65079 14.8167 4.11111 15.65 4.71429L16.375 4.02381C16.5583 3.84921 16.7833 3.7619 17.05 3.7619C17.3167 3.7619 17.55 3.85714 17.75 4.04762C17.9333 4.22222 18.025 4.44444 18.025 4.71429C18.025 4.98413 17.9333 5.20635 17.75 5.38095L17.05 6.04762C17.6833 6.84127 18.1667 7.69048 18.5 8.59524C18.8333 9.5 19 10.4444 19 11.4286C19 12.6032 18.7627 13.7105 18.288 14.7505C17.8127 15.7898 17.1667 16.6984 16.35 17.4762C15.5333 18.254 14.5793 18.8692 13.488 19.3219C12.396 19.774 11.2333 20 10 20ZM10 18.0952C11.9333 18.0952 13.5833 17.4444 14.95 16.1429C16.3167 14.8413 17 13.2698 17 11.4286C17 9.5873 16.3167 8.01587 14.95 6.71429C13.5833 5.4127 11.9333 4.7619 10 4.7619C8.06667 4.7619 6.41667 5.4127 5.05 6.71429C3.68333 8.01587 3 9.5873 3 11.4286C3 13.2698 3.68333 14.8413 5.05 16.1429C6.41667 17.4444 8.06667 18.0952 10 18.0952Z" fill="#757378"/>
</svg>