<svg width="121" height="155" viewBox="0 0 121 155" fill="none" xmlns="http://www.w3.org/2000/svg">
<path d="M21.7795 133.041H94.92C102.956 130.553 110.445 124.15 110.445 118.788C110.447 106.943 105.374 105.367 108.857 95.1568C112.336 84.9467 112.586 70.6253 104.583 59.431C94.7112 45.634 102.356 42.7544 94.9241 23.679C86.3479 1.66652 73.8606 -3.10842 61.8995 1.70833C61.8995 1.70833 47.1002 -2.70775 34.4783 9.43255C21.8564 21.5746 28.5589 38.8522 16.3724 52.6509C4.18876 66.4462 5.92654 78.8617 12.673 94.0401C19.1955 108.719 4.2025 120.378 21.7795 133.041Z" fill="black"/>
<path d="M111.68 116.759C104.814 104.623 60.6665 97.0083 60.6665 97.0083C60.6665 97.0083 16.5214 104.624 9.65542 116.759C4.57825 133.601 1.24142 155 1.24142 155H60.6665L119.87 154.879C119.87 154.879 118.133 132.055 111.68 116.759Z" fill="#F1C9A5"/>
<path d="M60.6661 97.0083C60.6661 97.0083 104.814 104.624 111.68 116.759C118.132 132.055 120.561 155 120.561 155H60.6661V97.0083Z" fill="#E4B692"/>
<path d="M72.6833 72.3337H48.6463V109.891H72.6833V72.3337Z" fill="#F1C9A5"/>
<path d="M72.6853 72.3337H60.6661V109.891H72.6853V72.3337Z" fill="#E4B692"/>
<path opacity="0.1" d="M48.6483 89.7389C50.8106 95.532 59.5345 98.8528 65.9411 98.8528C68.2597 98.8528 70.5161 98.4912 72.6853 97.8272V72.3337H48.6483V89.7389Z" fill="#DDAC8C"/>
<path d="M91.5698 48.6355C91.5698 25.1764 77.7356 11.8374 60.6669 11.8374C43.6009 11.8374 29.7667 25.1777 29.7667 48.6355C29.7667 72.0947 43.6009 91.1131 60.6669 91.1131C77.7356 91.1131 91.5698 72.0947 91.5698 48.6355Z" fill="#F1C9A5"/>
<path d="M86.8652 64.9005C81.2637 64.318 77.4814 58.3285 78.429 51.5292C79.367 44.7235 84.6711 39.6718 90.2767 40.2505C95.8754 40.8304 99.6494 46.816 98.7045 53.623C97.7666 60.4275 92.4653 65.474 86.8652 64.9005Z" fill="#E4B692"/>
<path d="M22.8432 53.6216C21.8969 46.8158 25.6751 40.829 31.271 40.249C36.8781 39.6703 42.1849 44.722 43.1242 51.5278C44.0705 58.3271 40.2841 64.3165 34.6853 64.8991C29.0825 65.4738 23.7839 60.4273 22.8432 53.6216Z" fill="#F1C9A5"/>
<path d="M91.569 48.6355C91.569 25.1764 77.7348 11.8374 60.6661 11.8374V91.1131C77.7348 91.1131 91.569 72.0947 91.569 48.6355Z" fill="#E4B692"/>
<path d="M60.5895 24.3508C60.5895 24.3508 61.3324 34.883 72.6834 35.8C84.0344 36.7158 85.5078 44.4813 83.2998 51.4756C81.0919 58.47 80.1082 62.3643 86.2424 67.8603C92.3737 73.3551 85.5078 94.5783 85.5078 94.5783L108.073 84.5525C108.073 84.5525 103.258 67.5116 105.865 58.0127C108.473 48.5152 96.7882 41.7559 93.8457 34.8856C90.9031 28.0152 76.1254 3.22954 64.1698 5.11278C52.2101 6.99473 53.4151 18.856 53.4151 18.856L60.5895 24.3508Z" fill="black"/>
<path d="M111.678 116.759C107.134 108.73 86.2802 102.614 72.6825 99.4375V93.1265H48.6468V99.3368C35.0478 102.513 14.194 108.73 9.65361 116.759C4.57644 133.601 0.332092 155 0.332092 155H60.6647H121C121 155 118.131 132.055 111.678 116.759Z" fill="#CEC600"/>
<path d="M24.4291 98.852H30.7762C27.5681 88.6996 39.5001 83.0899 40.8697 72.333C42.5907 58.7912 29.7649 48.6336 44.5469 41.9828C53.9279 37.763 60.5891 24.3504 60.5891 24.3504L62.1772 5.11108L38.5207 9.58023L25.291 36.0283C25.291 36.0283 16.0967 59.3854 16.4633 60.2508C16.8327 61.1162 24.4291 98.852 24.4291 98.852Z" fill="black"/>
</svg>
