<svg width="20" height="20" viewBox="0 0 20 20" fill="none" xmlns="http://www.w3.org/2000/svg">
<path d="M5 0C4.44772 0 4 0.447715 4 1V5.58579C4 5.851 4.10536 6.10536 4.29289 6.29289L7.29289 9.29289C7.68342 9.68342 7.68342 10.3166 7.29289 10.7071L4.29289 13.7071C4.10536 13.8946 4 14.149 4 14.4142V19C4 19.5523 4.44772 20 5 20H15C15.5523 20 16 19.5523 16 19V14.4142C16 14.149 15.8946 13.8946 15.7071 13.7071L12.7071 10.7071C12.3166 10.3166 12.3166 9.68342 12.7071 9.29289L15.7071 6.29289C15.8946 6.10536 16 5.851 16 5.58579V1C16 0.447715 15.5523 0 15 0H5ZM13.7071 14.2071C13.8946 14.3946 14 14.649 14 14.9142V17C14 17.5523 13.5523 18 13 18H7C6.44772 18 6 17.5523 6 17V14.9142C6 14.649 6.10536 14.3946 6.29289 14.2071L9.29289 11.2071C9.68342 10.8166 10.3166 10.8166 10.7071 11.2071L13.7071 14.2071ZM10.7071 8.79289C10.3166 9.18342 9.68342 9.18342 9.29289 8.79289L6.29289 5.79289C6.10536 5.60536 6 5.351 6 5.08579V3C6 2.44772 6.44772 2 7 2H13C13.5523 2 14 2.44772 14 3V5.08579C14 5.351 13.8946 5.60536 13.7071 5.79289L10.7071 8.79289Z" fill="#757378"/>
</svg>