<svg width="18" height="21" viewBox="0 0 18 21" fill="none" xmlns="http://www.w3.org/2000/svg">
<path d="M7 2C6.71667 2 6.47933 1.904 6.288 1.712C6.096 1.52067 6 1.28333 6 1C6 0.716667 6.096 0.479 6.288 0.287C6.47933 0.0956666 6.71667 0 7 0H11C11.2833 0 11.521 0.0956666 11.713 0.287C11.9043 0.479 12 0.716667 12 1C12 1.28333 11.9043 1.52067 11.713 1.712C11.521 1.904 11.2833 2 11 2H7ZM9 13C9.28333 13 9.521 12.904 9.713 12.712C9.90433 12.5207 10 12.2833 10 12V8C10 7.71667 9.90433 7.479 9.713 7.287C9.521 7.09567 9.28333 7 9 7C8.71667 7 8.47933 7.09567 8.288 7.287C8.096 7.479 8 7.71667 8 8V12C8 12.2833 8.096 12.5207 8.288 12.712C8.47933 12.904 8.71667 13 9 13ZM9 21C7.76667 21 6.604 20.7627 5.512 20.288C4.42067 19.8127 3.46667 19.1667 2.65 18.35C1.83333 17.5333 1.18733 16.5793 0.712 15.488C0.237333 14.396 0 13.2333 0 12C0 10.7667 0.237333 9.604 0.712 8.512C1.18733 7.42067 1.83333 6.46667 2.65 5.65C3.46667 4.83333 4.42067 4.18767 5.512 3.713C6.604 3.23767 7.76667 3 9 3C10.0333 3 11.025 3.16667 11.975 3.5C12.925 3.83333 13.8167 4.31667 14.65 4.95L15.375 4.225C15.5583 4.04167 15.7833 3.95 16.05 3.95C16.3167 3.95 16.55 4.05 16.75 4.25C16.9333 4.43333 17.025 4.66667 17.025 4.95C17.025 5.23333 16.9333 5.46667 16.75 5.65L16.05 6.35C16.6833 7.18333 17.1667 8.075 17.5 9.025C17.8333 9.975 18 10.9667 18 12C18 13.2333 17.7627 14.396 17.288 15.488C16.8127 16.5793 16.1667 17.5333 15.35 18.35C14.5333 19.1667 13.5793 19.8127 12.488 20.288C11.396 20.7627 10.2333 21 9 21ZM9 19C10.9333 19 12.5833 18.3167 13.95 16.95C15.3167 15.5833 16 13.9333 16 12C16 10.0667 15.3167 8.41667 13.95 7.05C12.5833 5.68333 10.9333 5 9 5C7.06667 5 5.41667 5.68333 4.05 7.05C2.68333 8.41667 2 10.0667 2 12C2 13.9333 2.68333 15.5833 4.05 16.95C5.41667 18.3167 7.06667 19 9 19Z" fill="#757378"/>
</svg>
