<svg width="20" height="20" viewBox="0 0 20 20" fill="none" xmlns="http://www.w3.org/2000/svg">
<path d="M10.4943 0.444557C10.2487 0.717393 9.9213 1.2085 9.75759 1.56318C9.51204 2.027 9.26649 2.13614 8.96637 2.027C8.72082 1.91787 8.01145 1.6996 7.41121 1.56318C6.81097 1.42677 6.21073 1.12665 6.1016 0.908378C5.69234 0.171722 5.31037 0.826527 5.47408 1.99972C5.63778 3.09106 5.61049 3.14563 4.4373 3.88229C1.08142 5.98312 -0.473743 9.8301 0.563033 13.4043C2.2819 19.2975 10.1396 21.8076 15.7873 18.2062C19.1977 16.0508 20.6437 11.8764 19.3614 7.92025C18.8703 6.39237 17.206 4.29154 16.0055 3.66402C15.4599 3.39118 15.2689 3.11835 15.378 2.76366C15.4871 2.32712 15.2962 2.21799 13.9593 2.05429C13.0862 1.97244 12.2131 1.99972 11.913 2.16342C11.0672 2.62724 11.0126 2.49082 11.6402 1.42677C12.104 0.635542 12.1313 0.38999 11.8584 0.226289C11.3128 -0.128398 10.9581 -0.0738304 10.4943 0.444557ZM10.9308 1.5359C10.5488 2.29984 10.4124 3.25476 10.6852 3.25476C10.7944 3.25476 11.2309 3.06378 11.6674 2.81823C12.4314 2.43626 13.7137 2.46354 14.4504 2.90008C14.8869 3.14563 14.0138 3.80044 13.2499 3.80044C12.295 3.80044 11.9948 4.23697 12.7861 4.50981C13.1408 4.61894 13.741 4.97363 14.1502 5.30103C14.7505 5.81942 14.8051 5.95584 14.4777 6.09226C13.6319 6.41966 13.0043 6.22867 12.0767 5.43745C11.0399 4.50981 10.6852 4.67351 11.1491 5.90127C11.531 6.93805 11.2582 8.22037 10.6852 7.97482C10.1123 7.75655 9.45748 6.44694 9.45748 5.5193V4.75536L8.77539 5.5193C8.31157 5.98312 7.79318 6.25596 7.27479 6.25596C6.23801 6.25596 6.07431 5.90127 6.5927 4.89178C6.89282 4.31882 7.22022 4.07327 7.68404 4.07327C8.66625 4.07327 8.52983 3.60945 7.43849 3.25476C6.67455 3.00921 6.18345 2.54539 6.18345 2.05429C6.18345 1.75417 8.47527 2.46354 8.93909 2.87279C9.40291 3.30933 9.53933 3.30933 9.73031 2.98193C9.89401 2.76366 10.0031 2.43626 10.0031 2.29984C10.0031 1.89059 10.7944 0.799244 11.0945 0.799244C11.2309 0.799244 11.1491 1.12665 10.9308 1.5359ZM6.15616 4.72808C5.85604 5.24646 5.39222 5.73757 5.14667 5.8467C4.7647 6.0104 4.81927 6.11954 5.50136 6.41966C6.48357 6.8562 7.68404 6.91076 8.39342 6.52879C8.80267 6.28324 8.9118 6.33781 8.9118 6.69249C8.9118 7.15631 10.5761 8.98431 11.0126 8.98431C11.3673 8.98431 11.913 7.72927 11.913 6.93805C11.913 6.33781 11.9676 6.28324 12.5678 6.55608C13.359 6.93805 14.996 6.66521 15.4599 6.09226C15.6508 5.87399 15.76 5.65572 15.7054 5.62843C15.6508 5.57387 15.2416 5.32832 14.8051 5.05548C14.2867 4.72808 14.123 4.48253 14.314 4.29154C14.7232 3.88229 15.4871 4.23697 16.6603 5.3556C18.2701 6.91076 18.8703 8.43864 18.8703 11.0306C18.8703 12.9404 18.7612 13.4043 18.0791 14.6593C17.1514 16.2963 15.8691 17.4422 13.9047 18.3153C11.8857 19.2429 8.22972 19.1884 6.18345 18.2334C4.16446 17.2785 2.90942 16.1599 1.95449 14.3865C1.27241 13.186 1.16327 12.6403 1.16327 11.0306C1.16327 8.30222 2.41832 6.09226 4.7647 4.59166C6.45628 3.5276 6.86554 3.55488 6.15616 4.72808Z" fill="#757378"/>
<path d="M17.8063 10.3212C17.6971 10.5122 17.6698 10.7304 17.7517 10.8123C17.9972 11.0578 18.2701 10.7032 18.1337 10.3212C18.0245 10.0211 17.97 10.0211 17.8063 10.3212Z" fill="#757378"/>
<path d="M17.7789 11.5217C17.6698 11.7946 17.6425 12.0947 17.7517 12.1765C18.0245 12.4494 18.2428 12.0674 18.1064 11.5217C17.9972 11.0579 17.9972 11.0579 17.7789 11.5217Z" fill="#757378"/>
<path d="M17.206 13.6224C16.1419 15.9688 13.9592 17.524 11.2581 17.8787C9.37557 18.1515 9.29372 18.6426 11.149 18.4516C12.8952 18.2879 14.6686 17.4694 15.9509 16.2417C17.015 15.2595 17.9972 13.5133 17.8608 12.8585C17.7789 12.5584 17.5606 12.8312 17.206 13.6224Z" fill="#757378"/>
</svg>