<svg width="20" height="20" viewBox="0 0 20 20" fill="none" xmlns="http://www.w3.org/2000/svg">
<path fill-rule="evenodd" clip-rule="evenodd" d="M9.93268 0.924066C10.2354 2.27078 10.5289 3.51758 10.7784 4.2017C11.5237 4.1648 12.0074 3.96187 12.5124 3.77431C13.1345 3.54371 13.6563 3.24547 14.1111 2.9011C14.4579 2.67203 14.6526 2.77657 14.6252 3.36999C14.5202 3.9219 14.2388 4.34467 13.8099 4.66137C14.5324 4.63216 15.1971 4.70441 15.7995 4.88582C16.7334 5.16869 17.5107 5.71138 18.1054 6.54769C18.291 6.80751 18.4568 7.09499 18.6043 7.40861C18.7504 7.71916 18.8781 8.06045 18.9861 8.43095L18.9892 8.43864C19.3983 9.98829 19.4455 11.4319 19.1778 12.7309C18.8979 14.0961 18.2727 15.2983 17.3647 16.2899C16.7441 16.9679 15.9987 17.5536 15.1226 18.024C14.2936 18.4698 13.3429 18.8142 12.2675 19.0356C10.8468 19.3277 9.56306 19.4061 8.40248 19.3C7.23277 19.1924 6.18627 18.8988 5.25233 18.4453C3.72669 17.7058 2.50526 16.3652 1.7067 14.7925C0.877713 13.1552 0.500486 11.2597 0.713436 9.52708C0.800138 8.82297 0.996357 8.15423 1.31122 7.54082C1.61087 6.9597 2.01852 6.42778 2.54481 5.96196C3.26732 5.20098 4.49939 4.73823 6.19996 4.55068L4.95724 4.04028C4.73668 3.89576 4.83403 3.80967 5.18996 3.77278C6.78557 3.71128 8.18496 3.78661 9.23603 4.10792C9.21929 3.20857 8.84359 2.30922 8.40704 1.40987L9.55089 0.655029L9.93268 0.924066ZM2.97071 11.275C2.93573 11.0967 3.05133 10.923 3.2293 10.8876C3.40574 10.8523 3.57762 10.9691 3.61261 11.149C3.81187 12.1713 4.11608 13.0061 4.50548 13.6856C4.89031 14.3574 5.36032 14.8801 5.89574 15.2906C6.04025 15.3998 6.06762 15.6073 5.95963 15.7534C5.85163 15.8994 5.64629 15.9271 5.50178 15.8179C4.89944 15.3567 4.37162 14.7694 3.94116 14.0177C3.51374 13.2736 3.18366 12.3727 2.97071 11.275ZM13.2775 5.39007C14.2495 5.67909 14.9583 6.27712 15.2063 7.40861C15.2245 7.97897 15.1454 8.20496 14.9081 7.8775C13.6624 6.87822 12.4881 6.3832 11.4264 6.65377C11.7838 7.51623 12.4942 8.19112 13.2669 8.8322C11.8766 8.85218 10.643 8.22494 9.51895 7.13957C8.26406 7.7622 6.43572 7.59156 5.74516 8.56316C5.34207 9.0628 5.2645 8.80914 5.37249 8.12809C5.66606 7.04272 6.16649 6.34169 6.89813 6.0665C5.69648 6.11262 4.90248 5.94659 4.4492 5.6053C3.83468 5.81284 3.35859 6.0911 3.02851 6.44315C3.02091 6.45084 3.0133 6.45853 3.00418 6.46621C2.54177 6.87361 2.18127 7.34097 1.91661 7.85598C1.63825 8.39559 1.46637 8.98593 1.39032 9.60856C1.1941 11.2089 1.54242 12.9615 2.31361 14.4789C3.04829 15.9255 4.16172 17.1554 5.54742 17.8257C6.40987 18.2439 7.37879 18.516 8.46636 18.6159C9.56306 18.7158 10.7814 18.6405 12.1352 18.3622C13.1406 18.1547 14.0289 17.8334 14.8062 17.4152C15.6169 16.9786 16.3029 16.4405 16.8703 15.8225C17.6947 14.9232 18.2621 13.8317 18.5161 12.591C18.761 11.395 18.7169 10.0575 18.3351 8.61389C18.2378 8.28336 18.1222 7.97897 17.9929 7.69917C17.862 7.42091 17.7175 7.17032 17.5578 6.94587C17.0544 6.23869 16.3973 5.78056 15.6078 5.54227C14.9279 5.33934 14.1461 5.29475 13.2775 5.39007Z" fill="#757378" stroke="#757378" stroke-miterlimit="2.6131"/>
</svg>
